<svg width="116" height="49" viewBox="0 0 116 49" fill="none" xmlns="http://www.w3.org/2000/svg">
<path d="M41.2358 41.3686C41.1847 40.9368 40.9773 40.6016 40.6136 40.3629C40.25 40.1243 39.804 40.005 39.2756 40.005C38.8892 40.005 38.5511 40.0675 38.2614 40.1925C37.9744 40.3175 37.75 40.4893 37.5881 40.7081C37.429 40.9268 37.3494 41.1754 37.3494 41.4538C37.3494 41.6868 37.4048 41.8871 37.5156 42.0547C37.6293 42.2195 37.7741 42.3572 37.9503 42.468C38.1264 42.576 38.3111 42.6655 38.5043 42.7365C38.6974 42.8047 38.875 42.8601 39.0369 42.9027L39.9233 43.1413C40.1506 43.201 40.4034 43.2834 40.6818 43.3885C40.9631 43.4936 41.2315 43.6371 41.4872 43.8189C41.7457 43.9979 41.9588 44.228 42.1264 44.5092C42.294 44.7905 42.3778 45.1357 42.3778 45.5447C42.3778 46.0163 42.2543 46.4425 42.0071 46.8232C41.7628 47.2038 41.4048 47.5064 40.9332 47.7308C40.4645 47.9553 39.8949 48.0675 39.2244 48.0675C38.5994 48.0675 38.0582 47.9666 37.6009 47.7649C37.1463 47.5632 36.7884 47.282 36.527 46.9212C36.2685 46.5604 36.1222 46.1413 36.0881 45.6641H37.179C37.2074 45.9936 37.3182 46.2663 37.5114 46.4822C37.7074 46.6953 37.9545 46.8544 38.2528 46.9595C38.554 47.0618 38.8778 47.1129 39.2244 47.1129C39.6278 47.1129 39.9901 47.0476 40.3111 46.9169C40.6321 46.7834 40.8864 46.5987 41.0739 46.3629C41.2614 46.1243 41.3551 45.8459 41.3551 45.5277C41.3551 45.2379 41.2741 45.0021 41.1122 44.8203C40.9503 44.6385 40.7372 44.4908 40.473 44.3771C40.2088 44.2635 39.9233 44.1641 39.6165 44.0788L38.5426 43.772C37.8608 43.576 37.321 43.2962 36.9233 42.9325C36.5256 42.5689 36.3267 42.093 36.3267 41.505C36.3267 41.0163 36.4588 40.5902 36.723 40.2266C36.9901 39.8601 37.348 39.576 37.7969 39.3743C38.2486 39.1697 38.7528 39.0675 39.3097 39.0675C39.8722 39.0675 40.3722 39.1683 40.8097 39.37C41.2472 39.5689 41.5938 39.8416 41.8494 40.1882C42.108 40.5348 42.2443 40.9283 42.2585 41.3686H41.2358ZM43.6381 40.1243V39.1868H50.1836V40.1243H47.4393V47.9141H46.3825V40.1243H43.6381ZM57.5419 39.1868H58.5987V44.9652C58.5987 45.5618 58.4581 46.0945 58.1768 46.5632C57.8984 47.0291 57.505 47.397 56.9964 47.6669C56.4879 47.9339 55.8913 48.0675 55.2067 48.0675C54.522 48.0675 53.9254 47.9339 53.4169 47.6669C52.9084 47.397 52.5135 47.0291 52.2322 46.5632C51.9538 46.0945 51.8146 45.5618 51.8146 44.9652V39.1868H52.8714V44.88C52.8714 45.3061 52.9652 45.6854 53.1527 46.0178C53.3402 46.3473 53.6072 46.6072 53.9538 46.7976C54.3033 46.9851 54.7209 47.0788 55.2067 47.0788C55.6925 47.0788 56.1101 46.9851 56.4595 46.7976C56.8089 46.6072 57.076 46.3473 57.2607 46.0178C57.4482 45.6854 57.5419 45.3061 57.5419 44.88V39.1868ZM63.4023 47.9141H60.7092V39.1868H63.5217C64.3683 39.1868 65.0927 39.3615 65.695 39.7109C66.2972 40.0575 66.7589 40.5561 67.0799 41.2067C67.4009 41.8544 67.5614 42.63 67.5614 43.5334C67.5614 44.4425 67.3995 45.2251 67.0756 45.8814C66.7518 46.5348 66.2802 47.0376 65.6609 47.3899C65.0415 47.7393 64.2887 47.9141 63.4023 47.9141ZM61.766 46.9766H63.3342C64.0558 46.9766 64.6538 46.8374 65.1282 46.5589C65.6026 46.2805 65.9563 45.8842 66.1893 45.37C66.4222 44.8558 66.5387 44.2436 66.5387 43.5334C66.5387 42.8288 66.4237 42.2223 66.1935 41.7138C65.9634 41.2024 65.6197 40.8104 65.1623 40.5376C64.7049 40.2621 64.1353 40.1243 63.4535 40.1243H61.766V46.9766ZM70.391 39.1868V47.9141H69.3342V39.1868H70.391ZM79.8736 43.5504C79.8736 44.4709 79.7074 45.2663 79.375 45.9368C79.0426 46.6072 78.5866 47.1243 78.0071 47.4879C77.4276 47.8516 76.7656 48.0334 76.0213 48.0334C75.277 48.0334 74.6151 47.8516 74.0355 47.4879C73.456 47.1243 73 46.6072 72.6676 45.9368C72.3352 45.2663 72.169 44.4709 72.169 43.5504C72.169 42.63 72.3352 41.8345 72.6676 41.1641C73 40.4936 73.456 39.9766 74.0355 39.6129C74.6151 39.2493 75.277 39.0675 76.0213 39.0675C76.7656 39.0675 77.4276 39.2493 78.0071 39.6129C78.5866 39.9766 79.0426 40.4936 79.375 41.1641C79.7074 41.8345 79.8736 42.63 79.8736 43.5504ZM78.8509 43.5504C78.8509 42.7947 78.7244 42.157 78.4716 41.6371C78.2216 41.1172 77.8821 40.7237 77.4531 40.4567C77.027 40.1896 76.5497 40.0561 76.0213 40.0561C75.4929 40.0561 75.0142 40.1896 74.5852 40.4567C74.1591 40.7237 73.8196 41.1172 73.5668 41.6371C73.3168 42.157 73.1918 42.7947 73.1918 43.5504C73.1918 44.3061 73.3168 44.9439 73.5668 45.4638C73.8196 45.9837 74.1591 46.3771 74.5852 46.6442C75.0142 46.9112 75.4929 47.0447 76.0213 47.0447C76.5497 47.0447 77.027 46.9112 77.4531 46.6442C77.8821 46.3771 78.2216 45.9837 78.4716 45.4638C78.7244 44.9439 78.8509 44.3061 78.8509 43.5504Z" fill="white"/>
<path d="M89.668 33.5429L95.4994 3.45703H102.297L108.091 33.5429H102.408L101.331 26.9315H96.5766L95.4251 33.5429H89.668ZM97.1337 23.18H100.737L98.9166 11.0342L97.1337 23.18Z" fill="white"/>
<path d="M80.457 33.9518C78.5998 33.9518 77.0522 33.6175 75.8141 32.949C74.576 32.2556 73.635 31.228 72.9912 29.8661C72.3722 28.4794 72.0131 26.7213 71.9141 24.5918L77.1884 23.7003C77.2379 24.9385 77.3617 25.9785 77.5598 26.8204C77.7827 27.6375 78.1046 28.2566 78.5255 28.6775C78.9712 29.0737 79.516 29.2718 80.1598 29.2718C80.9522 29.2718 81.4846 29.0242 81.757 28.5289C82.0541 28.0337 82.2027 27.4642 82.2027 26.8204C82.2027 25.5575 81.8932 24.5051 81.2741 23.6632C80.6798 22.7965 79.8874 21.9299 78.897 21.0632L75.7769 18.3517C74.6627 17.4108 73.7465 16.346 73.0284 15.1574C72.335 13.9689 71.9883 12.5079 71.9883 10.7746C71.9883 8.29835 72.7064 6.40405 74.1426 5.09166C75.6036 3.75451 77.597 3.08594 80.1227 3.08594C81.6332 3.08594 82.8713 3.33356 83.837 3.8288C84.8027 4.32404 85.5456 4.99262 86.0656 5.83453C86.6103 6.65167 86.9818 7.55549 87.1799 8.54597C87.4027 9.51169 87.5389 10.4774 87.5884 11.4431L82.3513 12.2231C82.3017 11.3069 82.2151 10.5022 82.0913 9.80883C81.9922 9.1155 81.7694 8.57073 81.4227 8.17454C81.1008 7.77835 80.6055 7.58025 79.937 7.58025C79.2189 7.58025 78.6865 7.85263 78.3398 8.3974C77.9931 8.9174 77.8198 9.49931 77.8198 10.1431C77.8198 11.2079 78.0551 12.0869 78.5255 12.7803C79.0208 13.4489 79.6893 14.1546 80.5313 14.8974L83.577 17.5717C84.8399 18.6613 85.917 19.9118 86.8084 21.3232C87.7246 22.7099 88.1827 24.4308 88.1827 26.4861C88.1827 27.8975 87.8608 29.1728 87.217 30.3118C86.5732 31.4509 85.6694 32.3423 84.5056 32.9861C83.3665 33.6299 82.017 33.9518 80.457 33.9518Z" fill="white"/>
<path d="M61.957 33.5429V3.45703H68.0485V33.5429H61.957Z" fill="white"/>
<path d="M48.4202 33.5429V8.02563H43.7773V3.45703H59.1546V8.02563H54.586V33.5429H48.4202Z" fill="white"/>
<path d="M25.7539 33.5429L31.5854 3.45703H38.3826L44.1769 33.5429H38.494L37.4168 26.9315H32.6625L31.5111 33.5429H25.7539ZM33.2197 23.18H36.8225L35.0025 11.0342L33.2197 23.18Z" fill="white"/>
<path d="M16.5429 33.9518C14.6858 33.9518 13.1381 33.6175 11.9 32.949C10.6619 32.2556 9.72096 31.228 9.07715 29.8661C8.4581 28.4794 8.09905 26.7213 8 24.5918L13.2743 23.7003C13.3238 24.9385 13.4477 25.9785 13.6457 26.8204C13.8686 27.6375 14.1905 28.2566 14.6115 28.6775C15.0572 29.0737 15.602 29.2718 16.2458 29.2718C17.0381 29.2718 17.5705 29.0242 17.8429 28.5289C18.1401 28.0337 18.2886 27.4642 18.2886 26.8204C18.2886 25.5575 17.9791 24.5051 17.3601 23.6632C16.7658 22.7965 15.9734 21.9299 14.9829 21.0632L11.8629 18.3517C10.7486 17.4108 9.83239 16.346 9.11429 15.1574C8.42096 13.9689 8.07429 12.5079 8.07429 10.7746C8.07429 8.29835 8.79239 6.40405 10.2286 5.09166C11.6895 3.75451 13.6829 3.08594 16.2086 3.08594C17.7191 3.08594 18.9572 3.33356 19.9229 3.8288C20.8886 4.32404 21.6315 4.99262 22.1515 5.83453C22.6963 6.65167 23.0677 7.55549 23.2658 8.54597C23.4887 9.51169 23.6249 10.4774 23.6744 11.4431L18.4372 12.2231C18.3877 11.3069 18.301 10.5022 18.1772 9.80883C18.0782 9.1155 17.8553 8.57073 17.5086 8.17454C17.1867 7.77835 16.6915 7.58025 16.0229 7.58025C15.3048 7.58025 14.7724 7.85263 14.4258 8.3974C14.0791 8.9174 13.9057 9.49931 13.9057 10.1431C13.9057 11.2079 14.141 12.0869 14.6115 12.7803C15.1067 13.4489 15.7753 14.1546 16.6172 14.8974L19.6629 17.5717C20.9258 18.6613 22.0029 19.9118 22.8944 21.3232C23.8106 22.7099 24.2687 24.4308 24.2687 26.4861C24.2687 27.8975 23.9468 29.1728 23.3029 30.3118C22.6591 31.4509 21.7553 32.3423 20.5915 32.9861C19.4524 33.6299 18.1029 33.9518 16.5429 33.9518Z" fill="white"/>
<path d="M94.476 4.40039L88.7617 34.4006H90.476L96.1903 4.40039H94.476Z" fill="#15B4A2"/>
<path d="M30.476 4.40039L24.7617 34.4006H26.476L32.1903 4.40039H30.476Z" fill="#15B4A2"/>
</svg>
